<svg width="32" height="32" xmlns="http://www.w3.org/2000/svg">

 <g>
  <title>background</title>
  <rect fill="none" id="canvas_background" height="402" width="582" y="-1" x="-1"/>
 </g>
 <g>
  <title>Layer 1</title>
  <path fill="#ffffff" stroke="null" id="svg_1" d="m23.797073,14.700488l-6.497561,0l0,-6.497561c0,-0.717331 -0.582181,-1.299512 -1.299512,-1.299512s-1.299512,0.582181 -1.299512,1.299512l0,6.497561l-6.497561,0c-0.717331,0 -1.299512,0.582181 -1.299512,1.299512s0.582181,1.299512 1.299512,1.299512l6.497561,0l0,6.497561c0,0.717331 0.582181,1.299512 1.299512,1.299512s1.299512,-0.582181 1.299512,-1.299512l0,-6.497561l6.497561,0c0.717331,0 1.299512,-0.582181 1.299512,-1.299512s-0.582181,-1.299512 -1.299512,-1.299512z"/>
 </g>
</svg>