<svg width="32" height="32" xmlns="http://www.w3.org/2000/svg">

 <title/>
 <g>
  <title>background</title>
  <rect fill="none" id="canvas_background" height="402" width="582" y="-1" x="-1"/>
 </g>
 <g>
  <title>Layer 1</title>
  <path stroke="null" fill="#ffffff" id="svg_1" d="m16,31.950965a15.950965,15.950965 0 1 1 15.950965,-15.950965a15.950965,15.950965 0 0 1 -15.950965,15.950965zm0,-29.775134a13.824169,13.824169 0 1 0 13.824169,13.824169a13.824169,13.824169 0 0 0 -13.824169,-13.824169z" class="cls-1"/>
  <path stroke="null" fill="#ffffff" id="svg_2" d="m14.055887,20.928393a0.817979,0.817979 0 0 1 -0.597125,-0.261753l-3.819964,-4.089897a0.817979,0.817979 0 0 1 1.19425,-1.112452l3.222839,3.443694l7.034623,-7.533591a0.817979,0.817979 0 1 1 1.19425,1.112452l-7.631748,8.179795a0.817979,0.817979 0 0 1 -0.597125,0.261753z" class="cls-1"/>
 </g>
</svg>