<svg width="512" height="512" xmlns="http://www.w3.org/2000/svg">

 <g>
  <title>background</title>
  <rect fill="none" id="canvas_background" height="402" width="582" y="-1" x="-1"/>
 </g>
 <g>
  <title>Layer 1</title>
  <path fill="#ffffff" stroke="null" id="svg_1" d="m316.884844,284.8945c10.319466,-16.235959 16.373552,-35.498962 16.373552,-56.20669c0,-57.857804 -46.850374,-104.776975 -104.639382,-104.776975c-57.857804,0 -104.708179,46.919171 -104.708179,104.776975c0,57.857804 46.850374,104.776975 104.639382,104.776975c20.982914,0 40.521102,-6.191679 56.894654,-16.786331l4.746954,-3.302229l74.712932,74.712932l23.1844,-23.597178l-74.644135,-74.712932l3.439822,-4.884547zm-29.651265,-114.752459c15.616791,15.616791 24.216346,36.393316 24.216346,58.476972c0,22.083657 -8.599555,42.860181 -24.216346,58.476972c-15.616791,15.616791 -36.393316,24.216346 -58.476972,24.216346c-22.083657,0 -42.860181,-8.599555 -58.476972,-24.216346c-15.616791,-15.616791 -24.216346,-36.393316 -24.216346,-58.476972c0,-22.083657 8.599555,-42.860181 24.216346,-58.476972c15.616791,-15.616791 36.393316,-24.216346 58.476972,-24.216346c22.083657,0 42.860181,8.599555 58.476972,24.216346z"/>
 </g>
</svg>