<svg width="128" height="128" xmlns="http://www.w3.org/2000/svg">
 <title/>

 <g>
  <title>background</title>
  <rect fill="none" id="canvas_background" height="402" width="582" y="-1" x="-1"/>
 </g>
 <g>
  <title>Layer 1</title>
  <path stroke="null" fill="#ffffff" id="svg_1" d="m64.000001,48.866267a15.133733,15.133733 0 1 0 15.133733,15.133733a15.133733,15.133733 0 0 0 -15.133733,-15.133733zm0,26.635369a11.501637,11.501637 0 1 1 11.501637,-11.501637a11.501637,11.501637 0 0 1 -11.501637,11.501637z"/>
  <path stroke="null" fill="#ffffff" id="svg_2" d="m99.402685,54.062405l-5.54642,0a0.6211,0.6211 0 0 1 -0.583834,-0.422348a30.992876,30.992876 0 0 0 -1.242199,-3.012334a0.6211,0.6211 0 0 1 0.111798,-0.714265l3.919139,-3.92535a4.347698,4.347698 0 0 0 0,-6.148887l-7.906599,-7.900388a4.347698,4.347698 0 0 0 -6.148887,0l-3.919139,3.919139a0.6211,0.6211 0 0 1 -0.714265,0.111798a30.905922,30.905922 0 0 0 -3.012334,-1.242199a0.6211,0.6211 0 0 1 -0.422348,-0.583834l0,-5.54642a4.347698,4.347698 0 0 0 -4.347698,-4.347698l-11.179795,0a4.347698,4.347698 0 0 0 -4.347698,4.347698l0,5.54642a0.6211,0.6211 0 0 1 -0.422348,0.583834a30.992876,30.992876 0 0 0 -3.012334,1.242199a0.6211,0.6211 0 0 1 -0.714265,-0.111798l-3.92535,-3.919139a4.347698,4.347698 0 0 0 -6.148887,0l-7.900388,7.906599a4.347698,4.347698 0 0 0 0,6.148887l3.919139,3.919139a0.6211,0.6211 0 0 1 0.111798,0.714265a30.905922,30.905922 0 0 0 -1.242199,3.012334a0.6211,0.6211 0 0 1 -0.583834,0.422348l-5.54642,0a4.347698,4.347698 0 0 0 -4.347698,4.347698l0,11.179795a4.347698,4.347698 0 0 0 4.347698,4.347698l5.54642,0a0.6211,0.6211 0 0 1 0.583834,0.422348a30.992876,30.992876 0 0 0 1.242199,3.012334a0.6211,0.6211 0 0 1 -0.111798,0.714265l-3.919139,3.92535a4.347698,4.347698 0 0 0 0,6.148887l7.906599,7.906599a4.347698,4.347698 0 0 0 6.148887,0l3.919139,-3.919139a0.6211,0.6211 0 0 1 0.714265,-0.111798a30.905922,30.905922 0 0 0 3.012334,1.242199a0.6211,0.6211 0 0 1 0.422348,0.583834l0,5.540209a4.347698,4.347698 0 0 0 4.347698,4.347698l11.179795,0a4.347698,4.347698 0 0 0 4.347698,-4.347698l0,-5.54642a0.6211,0.6211 0 0 1 0.422348,-0.583834a30.992876,30.992876 0 0 0 3.012334,-1.242199a0.6211,0.6211 0 0 1 0.714265,0.111798l3.92535,3.919139a4.347698,4.347698 0 0 0 6.148887,0l7.906599,-7.906599a4.347698,4.347698 0 0 0 0,-6.148887l-3.919139,-3.919139a0.6211,0.6211 0 0 1 -0.111798,-0.714265a30.905922,30.905922 0 0 0 1.242199,-3.012334a0.6211,0.6211 0 0 1 0.583834,-0.422348l5.540209,0a4.347698,4.347698 0 0 0 4.347698,-4.347698l0,-11.179795a4.347698,4.347698 0 0 0 -4.347698,-4.347698zm0.6211,15.527493a0.6211,0.6211 0 0 1 -0.6211,0.6211l-5.54642,0a4.347698,4.347698 0 0 0 -4.099258,2.912958a27.266278,27.266278 0 0 1 -1.093136,2.645885a4.347698,4.347698 0 0 0 0.838485,4.968798l3.919139,3.919139a0.6211,0.6211 0 0 1 0,0.875751l-7.900388,7.894177a0.6211,0.6211 0 0 1 -0.875751,0l-3.919139,-3.919139a4.347698,4.347698 0 0 0 -4.968798,-0.838485a27.253856,27.253856 0 0 1 -2.652096,1.093136a4.347698,4.347698 0 0 0 -2.906747,4.099258l0,5.540209a0.6211,0.6211 0 0 1 -0.6211,0.6211l-11.167373,0a0.6211,0.6211 0 0 1 -0.6211,-0.6211l0,-5.54642a4.347698,4.347698 0 0 0 -2.912958,-4.099258a27.266278,27.266278 0 0 1 -2.645885,-1.093136a4.347698,4.347698 0 0 0 -4.968798,0.838485l-3.919139,3.919139a0.6211,0.6211 0 0 1 -0.875751,0l-7.894177,-7.900388a0.6211,0.6211 0 0 1 0,-0.875751l3.919139,-3.919139a4.347698,4.347698 0 0 0 0.838485,-4.968798a27.253856,27.253856 0 0 1 -1.093136,-2.652096a4.347698,4.347698 0 0 0 -4.093047,-2.894325l-5.54642,0a0.6211,0.6211 0 0 1 -0.6211,-0.6211l0,-11.179795a0.6211,0.6211 0 0 1 0.6211,-0.6211l5.54642,0a4.347698,4.347698 0 0 0 4.099258,-2.912958a27.266278,27.266278 0 0 1 1.093136,-2.645885a4.347698,4.347698 0 0 0 -0.838485,-4.968798l-3.919139,-3.919139a0.6211,0.6211 0 0 1 0,-0.875751l7.900388,-7.894177a0.6211,0.6211 0 0 1 0.875751,0l3.919139,3.919139a4.347698,4.347698 0 0 0 4.968798,0.838485a27.253856,27.253856 0 0 1 2.652096,-1.093136a4.347698,4.347698 0 0 0 2.894325,-4.093047l0,-5.54642a0.6211,0.6211 0 0 1 0.6211,-0.6211l11.179795,0a0.6211,0.6211 0 0 1 0.6211,0.6211l0,5.54642a4.347698,4.347698 0 0 0 2.912958,4.099258a27.266278,27.266278 0 0 1 2.645885,1.093136a4.347698,4.347698 0 0 0 4.968798,-0.838485l3.919139,-3.919139a0.6211,0.6211 0 0 1 0.875751,0l7.906599,7.906599a0.6211,0.6211 0 0 1 0,0.875751l-3.919139,3.919139a4.347698,4.347698 0 0 0 -0.838485,4.968798a27.253856,27.253856 0 0 1 1.093136,2.652096a4.347698,4.347698 0 0 0 4.099258,2.906747l5.527788,0a0.6211,0.6211 0 0 1 0.6211,0.6211l0,11.161162z"/>
 </g>
</svg>